<?xml version="1.0" standalone="no"?>
<!DOCTYPE svg PUBLIC "-//W3C//DTD SVG 20010904//EN"
 "http://www.w3.org/TR/2001/REC-SVG-20010904/DTD/svg10.dtd">
<svg version="1.0" xmlns="http://www.w3.org/2000/svg"
 width="225.000000pt" height="225.000000pt" viewBox="0 0 225.000000 225.000000"
 preserveAspectRatio="xMidYMid meet">

<g transform="translate(0.000000,225.000000) scale(0.100000,-0.100000)"
fill="#000000" stroke="none">
<path d="M354 1563 c-142 -236 -259 -432 -259 -438 0 -5 116 -202 259 -437
l259 -428 512 0 512 0 259 427 c143 235 260 430 262 434 2 3 -19 43 -46 88
l-49 81 -67 -107 c-36 -60 -153 -252 -259 -428 l-193 -320 -419 0 -419 0 -188
310 c-103 171 -196 326 -207 346 l-20 36 207 344 208 344 418 3 c382 2 418 1
412 -14 -7 -18 -368 -613 -398 -656 l-19 -28 -311 0 c-178 0 -308 -4 -306 -9
2 -5 70 -120 153 -255 l150 -246 321 0 320 0 254 418 c139 229 253 422 253
428 0 6 -70 128 -157 272 l-157 262 -513 0 -513 0 -259 -427z"/>
</g>
</svg>
